<mxfile host="app.diagrams.net" modified="2022-07-14T00:52:36.275Z" agent="5.0 (Windows NT 10.0; Win64; x64) AppleWebKit/537.36 (KHTML, like Gecko) Chrome/103.0.0.0 Safari/537.36" etag="NbPVhYPIjLDfcIYZEGDo" version="20.1.1" type="github" pages="4">
  <diagram id="f6H1rkS5LVtp8DxBB44C" name="账户模型">
    <mxGraphModel dx="1422" dy="706" grid="1" gridSize="10" guides="1" tooltips="1" connect="1" arrows="1" fold="1" page="1" pageScale="1" pageWidth="827" pageHeight="1169" math="0" shadow="0">
      <root>
        <mxCell id="0" />
        <mxCell id="1" parent="0" />
        <mxCell id="CPrKHJD8Jtr9ogx_GKBD-1" value="付款人" style="shape=umlActor;verticalLabelPosition=bottom;verticalAlign=top;html=1;outlineConnect=0;fillColor=#21C0A5;strokeColor=#006658;fontColor=#5C5C5C;" parent="1" vertex="1">
          <mxGeometry x="180" y="220" width="30" height="60" as="geometry" />
        </mxCell>
        <mxCell id="CPrKHJD8Jtr9ogx_GKBD-2" value="收款人" style="shape=umlActor;verticalLabelPosition=bottom;verticalAlign=top;html=1;outlineConnect=0;fillColor=#21C0A5;strokeColor=#006658;fontColor=#5C5C5C;" parent="1" vertex="1">
          <mxGeometry x="550" y="220" width="30" height="60" as="geometry" />
        </mxCell>
        <mxCell id="CPrKHJD8Jtr9ogx_GKBD-4" value="&lt;font style=&quot;font-size: 18px;&quot;&gt;货币&lt;/font&gt;" style="ellipse;whiteSpace=wrap;html=1;aspect=fixed;fillColor=#21C0A5;strokeColor=#006658;fontColor=#5C5C5C;" parent="1" vertex="1">
          <mxGeometry x="344" y="215" width="70" height="70" as="geometry" />
        </mxCell>
        <mxCell id="CPrKHJD8Jtr9ogx_GKBD-5" value="" style="endArrow=classic;html=1;rounded=0;entryX=0;entryY=0.5;entryDx=0;entryDy=0;strokeColor=#006658;fontColor=#5C5C5C;" parent="1" target="CPrKHJD8Jtr9ogx_GKBD-4" edge="1">
          <mxGeometry relative="1" as="geometry">
            <mxPoint x="210" y="250" as="sourcePoint" />
            <mxPoint x="280" y="250" as="targetPoint" />
          </mxGeometry>
        </mxCell>
        <mxCell id="CPrKHJD8Jtr9ogx_GKBD-6" value="付款" style="edgeLabel;resizable=0;html=1;align=center;verticalAlign=middle;fontColor=#5C5C5C;" parent="CPrKHJD8Jtr9ogx_GKBD-5" connectable="0" vertex="1">
          <mxGeometry relative="1" as="geometry">
            <mxPoint x="15" as="offset" />
          </mxGeometry>
        </mxCell>
        <mxCell id="CPrKHJD8Jtr9ogx_GKBD-12" value="&lt;font style=&quot;font-size: 14px;&quot;&gt;交易媒介&lt;/font&gt;" style="text;html=1;strokeColor=none;fillColor=none;align=center;verticalAlign=middle;whiteSpace=wrap;rounded=0;fontColor=#5C5C5C;" parent="1" vertex="1">
          <mxGeometry x="349" y="285" width="60" height="30" as="geometry" />
        </mxCell>
        <mxCell id="CPrKHJD8Jtr9ogx_GKBD-13" value="&lt;font style=&quot;font-size: 18px;&quot;&gt;支付模型：&lt;/font&gt;" style="text;html=1;strokeColor=none;fillColor=none;align=center;verticalAlign=middle;whiteSpace=wrap;rounded=0;fontColor=#5C5C5C;" parent="1" vertex="1">
          <mxGeometry x="50" y="235" width="100" height="30" as="geometry" />
        </mxCell>
        <mxCell id="CPrKHJD8Jtr9ogx_GKBD-20" value="" style="edgeStyle=orthogonalEdgeStyle;rounded=0;orthogonalLoop=1;jettySize=auto;html=1;fontSize=18;strokeColor=#006658;fontColor=#5C5C5C;" parent="1" source="CPrKHJD8Jtr9ogx_GKBD-15" target="CPrKHJD8Jtr9ogx_GKBD-17" edge="1">
          <mxGeometry relative="1" as="geometry" />
        </mxCell>
        <mxCell id="CPrKHJD8Jtr9ogx_GKBD-15" value="&lt;font style=&quot;font-size: 14px;&quot;&gt;流入&lt;/font&gt;" style="shape=tape;whiteSpace=wrap;html=1;fontSize=18;fillColor=#21C0A5;strokeColor=#006658;fontColor=#5C5C5C;" parent="1" vertex="1">
          <mxGeometry x="160" y="390" width="100" height="70" as="geometry" />
        </mxCell>
        <mxCell id="CPrKHJD8Jtr9ogx_GKBD-16" value="&lt;font style=&quot;font-size: 14px;&quot;&gt;流出&lt;/font&gt;" style="shape=tape;whiteSpace=wrap;html=1;fontSize=18;fillColor=#21C0A5;strokeColor=#006658;fontColor=#5C5C5C;" parent="1" vertex="1">
          <mxGeometry x="500" y="385" width="100" height="80" as="geometry" />
        </mxCell>
        <mxCell id="CPrKHJD8Jtr9ogx_GKBD-17" value="&lt;font style=&quot;font-size: 18px;&quot;&gt;账户余额&lt;/font&gt;" style="shape=cylinder3;whiteSpace=wrap;html=1;boundedLbl=1;backgroundOutline=1;size=15;fontSize=18;direction=south;fillColor=#21C0A5;strokeColor=#006658;fontColor=#5C5C5C;" parent="1" vertex="1">
          <mxGeometry x="321" y="395" width="116" height="60" as="geometry" />
        </mxCell>
        <mxCell id="CPrKHJD8Jtr9ogx_GKBD-23" value="&lt;font style=&quot;font-size: 18px;&quot;&gt;账户模型：&lt;/font&gt;" style="text;html=1;strokeColor=none;fillColor=none;align=center;verticalAlign=middle;whiteSpace=wrap;rounded=0;fontColor=#5C5C5C;" parent="1" vertex="1">
          <mxGeometry x="50" y="410" width="100" height="30" as="geometry" />
        </mxCell>
        <mxCell id="CPrKHJD8Jtr9ogx_GKBD-24" value="" style="edgeStyle=orthogonalEdgeStyle;rounded=0;orthogonalLoop=1;jettySize=auto;html=1;fontSize=18;strokeColor=#006658;fontColor=#5C5C5C;" parent="1" target="CPrKHJD8Jtr9ogx_GKBD-16" edge="1">
          <mxGeometry relative="1" as="geometry">
            <mxPoint x="424" y="424.5" as="sourcePoint" />
            <mxPoint x="494" y="424.5" as="targetPoint" />
          </mxGeometry>
        </mxCell>
        <mxCell id="CPrKHJD8Jtr9ogx_GKBD-30" value="" style="shape=flexArrow;endArrow=classic;html=1;rounded=0;fontSize=14;exitX=0.5;exitY=1;exitDx=0;exitDy=0;strokeColor=#006658;fontColor=#5C5C5C;" parent="1" source="CPrKHJD8Jtr9ogx_GKBD-12" target="CPrKHJD8Jtr9ogx_GKBD-17" edge="1">
          <mxGeometry width="50" height="50" relative="1" as="geometry">
            <mxPoint x="370" y="330" as="sourcePoint" />
            <mxPoint x="420" y="280" as="targetPoint" />
          </mxGeometry>
        </mxCell>
        <mxCell id="wtZnPB225sG8BclY1YyY-1" value="" style="endArrow=classic;html=1;rounded=1;sketch=0;fontSize=14;fontColor=#5C5C5C;strokeColor=#006658;fillColor=#21C0A5;" parent="1" target="CPrKHJD8Jtr9ogx_GKBD-2" edge="1">
          <mxGeometry width="50" height="50" relative="1" as="geometry">
            <mxPoint x="420" y="250" as="sourcePoint" />
            <mxPoint x="480" y="230" as="targetPoint" />
          </mxGeometry>
        </mxCell>
        <mxCell id="wtZnPB225sG8BclY1YyY-2" value="收款" style="edgeLabel;html=1;align=center;verticalAlign=middle;resizable=0;points=[];fontSize=14;fontColor=#5C5C5C;" parent="wtZnPB225sG8BclY1YyY-1" vertex="1" connectable="0">
          <mxGeometry x="0.1846" relative="1" as="geometry">
            <mxPoint as="offset" />
          </mxGeometry>
        </mxCell>
      </root>
    </mxGraphModel>
  </diagram>
  <diagram id="QtaU4OuOjG64xkX3miVt" name="账户分类">
    <mxGraphModel dx="1422" dy="706" grid="1" gridSize="10" guides="1" tooltips="1" connect="1" arrows="1" fold="1" page="1" pageScale="1" pageWidth="827" pageHeight="1169" math="0" shadow="0">
      <root>
        <mxCell id="0" />
        <mxCell id="1" parent="0" />
        <mxCell id="R0pAKbaEvjGTQqBw01Ny-1" value="" style="rounded=1;whiteSpace=wrap;html=1;sketch=0;fillColor=#f8cecc;strokeColor=#b85450;" vertex="1" parent="1">
          <mxGeometry x="150" y="200" width="130" height="100" as="geometry" />
        </mxCell>
        <mxCell id="R0pAKbaEvjGTQqBw01Ny-2" value="&lt;span style=&quot;color: rgba(0, 0, 0, 0); font-family: monospace; font-size: 0px; text-align: start;&quot;&gt;%3CmxGraphModel%3E%3Croot%3E%3CmxCell%20id%3D%220%22%2F%3E%3CmxCell%20id%3D%221%22%20parent%3D%220%22%2F%3E%3CmxCell%20id%3D%222%22%20value%3D%22%E7%94%B5%E5%AD%90%E8%B4%A7%E5%B8%81%22%20style%3D%22ellipse%3BwhiteSpace%3Dwrap%3Bhtml%3D1%3Brounded%3D0%3Bsketch%3D0%3BfontColor%3D%235C5C5C%3BstrokeColor%3D%23006658%3BfillColor%3D%2321C0A5%3B%22%20vertex%3D%221%22%20parent%3D%221%22%3E%3CmxGeometry%20x%3D%22150%22%20y%3D%22240%22%20width%3D%22110%22%20height%3D%2260%22%20as%3D%22geometry%22%2F%3E%3C%2FmxCell%3E%3CmxCell%20id%3D%223%22%20value%3D%22%E6%B8%85%E7%AE%97%E8%B4%A6%E6%88%B7%22%20style%3D%22text%3Bhtml%3D1%3BstrokeColor%3Dnone%3BfillColor%3Dnone%3Balign%3Dcenter%3BverticalAlign%3Dmiddle%3BwhiteSpace%3Dwrap%3Brounded%3D0%3Bsketch%3D0%3BfontColor%3D%235C5C5C%3B%22%20vertex%3D%221%22%20parent%3D%221%22%3E%3CmxGeometry%20x%3D%22175%22%20y%3D%22200%22%20width%3D%2260%22%20height%3D%2230%22%20as%3D%22geometry%22%2F%3E%3C%2FmxCell%3E%3C%2Froot%3E%3C%2FmxGraphModel%3E&lt;/span&gt;" style="rounded=1;whiteSpace=wrap;html=1;sketch=0;strokeColor=#d79b00;fillColor=#ffe6cc;" vertex="1" parent="1">
          <mxGeometry x="300" y="200" width="130" height="100" as="geometry" />
        </mxCell>
        <mxCell id="R0pAKbaEvjGTQqBw01Ny-3" value="" style="rounded=1;whiteSpace=wrap;html=1;sketch=0;strokeColor=#82b366;fillColor=#d5e8d4;" vertex="1" parent="1">
          <mxGeometry x="450" y="200" width="130" height="100" as="geometry" />
        </mxCell>
        <mxCell id="R0pAKbaEvjGTQqBw01Ny-4" value="" style="rounded=1;whiteSpace=wrap;html=1;sketch=0;fontColor=#333333;strokeColor=#666666;fillColor=#f5f5f5;" vertex="1" parent="1">
          <mxGeometry x="600" y="200" width="130" height="100" as="geometry" />
        </mxCell>
        <mxCell id="R0pAKbaEvjGTQqBw01Ny-6" value="电子货币" style="ellipse;whiteSpace=wrap;html=1;rounded=0;sketch=0;fontColor=#5C5C5C;strokeColor=#006658;fillColor=#1CA38C;" vertex="1" parent="1">
          <mxGeometry x="160" y="240" width="110" height="60" as="geometry" />
        </mxCell>
        <mxCell id="R0pAKbaEvjGTQqBw01Ny-7" value="清算账户" style="text;html=1;strokeColor=none;fillColor=none;align=center;verticalAlign=middle;whiteSpace=wrap;rounded=0;sketch=0;fontColor=#5C5C5C;" vertex="1" parent="1">
          <mxGeometry x="185" y="200" width="60" height="30" as="geometry" />
        </mxCell>
        <mxCell id="R0pAKbaEvjGTQqBw01Ny-8" value="电子货币" style="ellipse;whiteSpace=wrap;html=1;rounded=0;sketch=0;fontColor=#5C5C5C;strokeColor=#006658;fillColor=#20BDA2;fillStyle=auto;" vertex="1" parent="1">
          <mxGeometry x="310" y="240" width="110" height="60" as="geometry" />
        </mxCell>
        <mxCell id="R0pAKbaEvjGTQqBw01Ny-9" value="结算账户" style="text;html=1;strokeColor=none;fillColor=none;align=center;verticalAlign=middle;whiteSpace=wrap;rounded=0;sketch=0;fontColor=#5C5C5C;" vertex="1" parent="1">
          <mxGeometry x="335" y="200" width="60" height="30" as="geometry" />
        </mxCell>
        <mxCell id="R0pAKbaEvjGTQqBw01Ny-10" value="电子货币" style="ellipse;whiteSpace=wrap;html=1;rounded=0;sketch=0;fontColor=#5C5C5C;strokeColor=#006658;fillColor=#26DEBF;" vertex="1" parent="1">
          <mxGeometry x="460" y="240" width="110" height="60" as="geometry" />
        </mxCell>
        <mxCell id="R0pAKbaEvjGTQqBw01Ny-11" value="支付账户" style="text;html=1;strokeColor=none;fillColor=none;align=center;verticalAlign=middle;whiteSpace=wrap;rounded=0;sketch=0;fontColor=#5C5C5C;" vertex="1" parent="1">
          <mxGeometry x="485" y="200" width="60" height="30" as="geometry" />
        </mxCell>
        <mxCell id="R0pAKbaEvjGTQqBw01Ny-12" value="电子货币" style="ellipse;whiteSpace=wrap;html=1;rounded=0;sketch=0;fontColor=#5C5C5C;strokeColor=#006658;fillColor=#2AF2D0;" vertex="1" parent="1">
          <mxGeometry x="610" y="240" width="110" height="60" as="geometry" />
        </mxCell>
        <mxCell id="R0pAKbaEvjGTQqBw01Ny-13" value="虚拟账户" style="text;html=1;strokeColor=none;fillColor=none;align=center;verticalAlign=middle;whiteSpace=wrap;rounded=0;sketch=0;fontColor=#5C5C5C;" vertex="1" parent="1">
          <mxGeometry x="635" y="200" width="60" height="30" as="geometry" />
        </mxCell>
        <mxCell id="R0pAKbaEvjGTQqBw01Ny-14" style="edgeStyle=orthogonalEdgeStyle;curved=0;rounded=1;sketch=0;orthogonalLoop=1;jettySize=auto;html=1;exitX=0.5;exitY=1;exitDx=0;exitDy=0;fontColor=#5C5C5C;strokeColor=#006658;fillColor=#21C0A5;" edge="1" parent="1" source="R0pAKbaEvjGTQqBw01Ny-13" target="R0pAKbaEvjGTQqBw01Ny-13">
          <mxGeometry relative="1" as="geometry" />
        </mxCell>
        <mxCell id="R0pAKbaEvjGTQqBw01Ny-16" value="" style="verticalLabelPosition=bottom;verticalAlign=top;html=1;shape=mxgraph.basic.orthogonal_triangle;rounded=0;sketch=0;fillStyle=auto;strokeColor=#9673a6;fillColor=#e1d5e7;direction=south;" vertex="1" parent="1">
          <mxGeometry x="150" y="320" width="580" height="70" as="geometry" />
        </mxCell>
        <mxCell id="R0pAKbaEvjGTQqBw01Ny-17" value="高信用" style="text;html=1;strokeColor=none;fillColor=none;align=center;verticalAlign=middle;whiteSpace=wrap;rounded=0;sketch=0;fillStyle=auto;fontColor=#5C5C5C;" vertex="1" parent="1">
          <mxGeometry x="150" y="390" width="60" height="30" as="geometry" />
        </mxCell>
        <mxCell id="R0pAKbaEvjGTQqBw01Ny-18" value="低信用" style="text;html=1;strokeColor=none;fillColor=none;align=center;verticalAlign=middle;whiteSpace=wrap;rounded=0;sketch=0;fillStyle=auto;fontColor=#5C5C5C;" vertex="1" parent="1">
          <mxGeometry x="670" y="320" width="60" height="30" as="geometry" />
        </mxCell>
      </root>
    </mxGraphModel>
  </diagram>
  <diagram id="v-5f1s4mG_udccxqr9EY" name="账户协同">
    <mxGraphModel dx="1422" dy="706" grid="1" gridSize="10" guides="1" tooltips="1" connect="1" arrows="1" fold="1" page="1" pageScale="1" pageWidth="827" pageHeight="1169" math="0" shadow="0">
      <root>
        <mxCell id="0" />
        <mxCell id="1" parent="0" />
        <mxCell id="ZkLpK5JwC7J6gqu-XZDJ-1" value="" style="rounded=1;whiteSpace=wrap;html=1;sketch=0;fillStyle=auto;strokeColor=#82b366;fillColor=#d5e8d4;" vertex="1" parent="1">
          <mxGeometry x="140" y="80" width="630" height="150" as="geometry" />
        </mxCell>
        <mxCell id="7OhkyX0RaIAwD1gFARNe-6" value="" style="rounded=1;whiteSpace=wrap;html=1;sketch=0;fillStyle=auto;strokeColor=#82b366;fillColor=#d5e8d4;" vertex="1" parent="1">
          <mxGeometry x="100" y="430" width="260" height="100" as="geometry" />
        </mxCell>
        <mxCell id="7OhkyX0RaIAwD1gFARNe-7" value="" style="rounded=1;whiteSpace=wrap;html=1;sketch=0;fillStyle=auto;strokeColor=#82b366;fillColor=#d5e8d4;" vertex="1" parent="1">
          <mxGeometry x="522" y="430" width="260" height="100" as="geometry" />
        </mxCell>
        <mxCell id="7OhkyX0RaIAwD1gFARNe-8" value="&lt;font style=&quot;font-size: 18px;&quot;&gt;银联&lt;/font&gt;" style="rounded=1;whiteSpace=wrap;html=1;sketch=0;fillStyle=auto;strokeColor=#b85450;fillColor=#f8cecc;" vertex="1" parent="1">
          <mxGeometry x="382.5" y="310" width="120" height="60" as="geometry" />
        </mxCell>
        <mxCell id="7OhkyX0RaIAwD1gFARNe-9" value="&lt;font style=&quot;font-size: 18px;&quot;&gt;招商备用金&lt;/font&gt;" style="ellipse;whiteSpace=wrap;html=1;rounded=0;sketch=0;fillStyle=auto;strokeColor=#6c8ebf;fillColor=#dae8fc;" vertex="1" parent="1">
          <mxGeometry x="160" y="125" width="100" height="60" as="geometry" />
        </mxCell>
        <mxCell id="7OhkyX0RaIAwD1gFARNe-14" value="" style="edgeStyle=elbowEdgeStyle;rounded=1;sketch=0;orthogonalLoop=1;jettySize=auto;html=1;fontColor=#5C5C5C;strokeColor=#006658;fillColor=#21C0A5;" edge="1" parent="1" source="7OhkyX0RaIAwD1gFARNe-10" target="7OhkyX0RaIAwD1gFARNe-11">
          <mxGeometry relative="1" as="geometry" />
        </mxCell>
        <mxCell id="7OhkyX0RaIAwD1gFARNe-17" value="&lt;span style=&quot;font-size: 14px;&quot;&gt;资金转移&lt;/span&gt;" style="edgeLabel;html=1;align=center;verticalAlign=middle;resizable=0;points=[];fontColor=#5C5C5C;" vertex="1" connectable="0" parent="7OhkyX0RaIAwD1gFARNe-14">
          <mxGeometry x="-0.2326" y="1" relative="1" as="geometry">
            <mxPoint as="offset" />
          </mxGeometry>
        </mxCell>
        <mxCell id="7OhkyX0RaIAwD1gFARNe-10" value="&lt;font style=&quot;font-size: 18px;&quot;&gt;支付宝备用金&lt;/font&gt;" style="ellipse;whiteSpace=wrap;html=1;rounded=0;sketch=0;fillStyle=auto;strokeColor=#6c8ebf;fillColor=#dae8fc;" vertex="1" parent="1">
          <mxGeometry x="630" y="120" width="114" height="70" as="geometry" />
        </mxCell>
        <mxCell id="7OhkyX0RaIAwD1gFARNe-15" value="" style="edgeStyle=elbowEdgeStyle;rounded=1;sketch=0;orthogonalLoop=1;jettySize=auto;html=1;fontColor=#5C5C5C;strokeColor=#006658;fillColor=#21C0A5;" edge="1" parent="1" source="7OhkyX0RaIAwD1gFARNe-11" target="7OhkyX0RaIAwD1gFARNe-9">
          <mxGeometry relative="1" as="geometry" />
        </mxCell>
        <mxCell id="7OhkyX0RaIAwD1gFARNe-16" value="&lt;font style=&quot;font-size: 14px;&quot;&gt;资金转移&lt;/font&gt;" style="edgeLabel;html=1;align=center;verticalAlign=middle;resizable=0;points=[];fontColor=#5C5C5C;" vertex="1" connectable="0" parent="7OhkyX0RaIAwD1gFARNe-15">
          <mxGeometry x="-0.2222" y="-1" relative="1" as="geometry">
            <mxPoint as="offset" />
          </mxGeometry>
        </mxCell>
        <mxCell id="7OhkyX0RaIAwD1gFARNe-11" value="&lt;font style=&quot;font-size: 18px;&quot;&gt;支付宝备用金&lt;/font&gt;" style="ellipse;whiteSpace=wrap;html=1;rounded=0;sketch=0;fillStyle=auto;strokeColor=#6c8ebf;fillColor=#dae8fc;" vertex="1" parent="1">
          <mxGeometry x="385" y="125" width="115" height="60" as="geometry" />
        </mxCell>
        <mxCell id="7OhkyX0RaIAwD1gFARNe-12" value="" style="shape=umlActor;verticalLabelPosition=bottom;verticalAlign=top;html=1;outlineConnect=0;rounded=0;sketch=0;fillStyle=auto;fontColor=#5C5C5C;strokeColor=#006658;fillColor=#2AF2D0;" vertex="1" parent="1">
          <mxGeometry x="930" y="440" width="50" height="80" as="geometry" />
        </mxCell>
        <mxCell id="7OhkyX0RaIAwD1gFARNe-21" value="人民银行" style="text;html=1;strokeColor=none;fillColor=none;align=center;verticalAlign=middle;whiteSpace=wrap;rounded=0;sketch=0;fillStyle=auto;fontSize=18;fontColor=#5C5C5C;" vertex="1" parent="1">
          <mxGeometry x="397.5" y="90" width="90" height="30" as="geometry" />
        </mxCell>
        <mxCell id="7OhkyX0RaIAwD1gFARNe-23" value="&lt;font style=&quot;font-size: 14px;&quot;&gt;贷记&amp;nbsp; +100&lt;/font&gt;" style="text;html=1;strokeColor=none;fillColor=none;align=center;verticalAlign=middle;whiteSpace=wrap;rounded=0;sketch=0;fillStyle=auto;fontSize=18;fontColor=#5C5C5C;" vertex="1" parent="1">
          <mxGeometry x="180" y="185" width="70" height="30" as="geometry" />
        </mxCell>
        <mxCell id="7OhkyX0RaIAwD1gFARNe-24" value="&lt;font style=&quot;font-size: 14px;&quot;&gt;借记&amp;nbsp; -100贷记&amp;nbsp; +100&lt;/font&gt;" style="text;html=1;strokeColor=none;fillColor=none;align=center;verticalAlign=middle;whiteSpace=wrap;rounded=0;sketch=0;fillStyle=auto;fontSize=18;fontColor=#5C5C5C;" vertex="1" parent="1">
          <mxGeometry x="407.5" y="190" width="70" height="30" as="geometry" />
        </mxCell>
        <mxCell id="7OhkyX0RaIAwD1gFARNe-25" value="&lt;font style=&quot;font-size: 14px;&quot;&gt;借记&amp;nbsp; -100&lt;/font&gt;" style="text;html=1;strokeColor=none;fillColor=none;align=center;verticalAlign=middle;whiteSpace=wrap;rounded=0;sketch=0;fillStyle=auto;fontSize=18;fontColor=#5C5C5C;" vertex="1" parent="1">
          <mxGeometry x="652" y="190" width="70" height="30" as="geometry" />
        </mxCell>
        <mxCell id="7OhkyX0RaIAwD1gFARNe-28" value="个人结算账户&lt;br&gt;+100" style="ellipse;whiteSpace=wrap;html=1;rounded=0;sketch=0;fillStyle=auto;fontSize=14;strokeColor=#6c8ebf;fillColor=#dae8fc;" vertex="1" parent="1">
          <mxGeometry x="120" y="460" width="120" height="60" as="geometry" />
        </mxCell>
        <mxCell id="7OhkyX0RaIAwD1gFARNe-29" value="支付宝&lt;br&gt;-100" style="ellipse;whiteSpace=wrap;html=1;rounded=0;sketch=0;fillStyle=auto;fontSize=14;strokeColor=#6c8ebf;fillColor=#dae8fc;" vertex="1" parent="1">
          <mxGeometry x="652" y="465" width="120" height="60" as="geometry" />
        </mxCell>
        <mxCell id="7OhkyX0RaIAwD1gFARNe-30" value="招商银行" style="text;html=1;strokeColor=none;fillColor=none;align=center;verticalAlign=middle;whiteSpace=wrap;rounded=0;sketch=0;fillStyle=auto;fontSize=14;fontColor=#5C5C5C;" vertex="1" parent="1">
          <mxGeometry x="200" y="430" width="60" height="30" as="geometry" />
        </mxCell>
        <mxCell id="7OhkyX0RaIAwD1gFARNe-31" value="支付宝" style="text;html=1;strokeColor=none;fillColor=none;align=center;verticalAlign=middle;whiteSpace=wrap;rounded=0;sketch=0;fillStyle=auto;fontSize=14;fontColor=#5C5C5C;" vertex="1" parent="1">
          <mxGeometry x="622" y="430" width="60" height="30" as="geometry" />
        </mxCell>
        <mxCell id="7OhkyX0RaIAwD1gFARNe-33" value="" style="shape=flexArrow;endArrow=classic;html=1;rounded=1;sketch=0;fontSize=14;fontColor=#5C5C5C;strokeColor=#b85450;fillColor=#f8cecc;" edge="1" parent="1">
          <mxGeometry width="50" height="50" relative="1" as="geometry">
            <mxPoint x="350" y="489.5" as="sourcePoint" />
            <mxPoint x="250" y="489.5" as="targetPoint" />
          </mxGeometry>
        </mxCell>
        <mxCell id="7OhkyX0RaIAwD1gFARNe-34" value="入账" style="edgeLabel;html=1;align=center;verticalAlign=middle;resizable=0;points=[];fontSize=14;fontColor=#5C5C5C;" vertex="1" connectable="0" parent="7OhkyX0RaIAwD1gFARNe-33">
          <mxGeometry x="-0.2" y="-1" relative="1" as="geometry">
            <mxPoint as="offset" />
          </mxGeometry>
        </mxCell>
        <mxCell id="7OhkyX0RaIAwD1gFARNe-35" value="" style="shape=flexArrow;endArrow=classic;html=1;rounded=1;sketch=0;fontSize=14;fontColor=#5C5C5C;strokeColor=#b85450;fillColor=#f8cecc;" edge="1" parent="1">
          <mxGeometry width="50" height="50" relative="1" as="geometry">
            <mxPoint x="640" y="489.5" as="sourcePoint" />
            <mxPoint x="540" y="489.5" as="targetPoint" />
          </mxGeometry>
        </mxCell>
        <mxCell id="7OhkyX0RaIAwD1gFARNe-36" value="提现" style="edgeLabel;html=1;align=center;verticalAlign=middle;resizable=0;points=[];fontSize=14;fontColor=#5C5C5C;" vertex="1" connectable="0" parent="7OhkyX0RaIAwD1gFARNe-35">
          <mxGeometry x="-0.2" y="-1" relative="1" as="geometry">
            <mxPoint as="offset" />
          </mxGeometry>
        </mxCell>
        <mxCell id="7OhkyX0RaIAwD1gFARNe-40" value="" style="shape=flexArrow;endArrow=classic;html=1;rounded=1;sketch=0;fontSize=14;fontColor=#5C5C5C;strokeColor=#006658;fillColor=#21C0A5;endWidth=13;endSize=6.33;" edge="1" parent="1">
          <mxGeometry width="50" height="50" relative="1" as="geometry">
            <mxPoint x="930" y="489.5" as="sourcePoint" />
            <mxPoint x="790" y="490" as="targetPoint" />
          </mxGeometry>
        </mxCell>
        <mxCell id="7OhkyX0RaIAwD1gFARNe-42" value="发起提现" style="text;html=1;strokeColor=none;fillColor=none;align=center;verticalAlign=middle;whiteSpace=wrap;rounded=0;sketch=0;fillStyle=auto;fontSize=14;fontColor=#5C5C5C;" vertex="1" parent="1">
          <mxGeometry x="820" y="450" width="60" height="30" as="geometry" />
        </mxCell>
        <mxCell id="7OhkyX0RaIAwD1gFARNe-43" value="" style="curved=1;endArrow=classic;html=1;rounded=1;sketch=0;fontSize=14;fontColor=#5C5C5C;strokeColor=#006658;fillColor=#21C0A5;entryX=1;entryY=0.25;entryDx=0;entryDy=0;" edge="1" parent="1" target="7OhkyX0RaIAwD1gFARNe-8">
          <mxGeometry width="50" height="50" relative="1" as="geometry">
            <mxPoint x="700" y="430" as="sourcePoint" />
            <mxPoint x="712" y="380" as="targetPoint" />
            <Array as="points">
              <mxPoint x="710" y="410" />
              <mxPoint x="690" y="370" />
            </Array>
          </mxGeometry>
        </mxCell>
        <mxCell id="7OhkyX0RaIAwD1gFARNe-49" value="" style="curved=1;endArrow=classic;html=1;rounded=1;sketch=0;fontSize=14;fontColor=#5C5C5C;strokeColor=#006658;fillColor=#21C0A5;exitX=1;exitY=0.75;exitDx=0;exitDy=0;" edge="1" parent="1" source="7OhkyX0RaIAwD1gFARNe-8">
          <mxGeometry width="50" height="50" relative="1" as="geometry">
            <mxPoint x="487.5" y="370" as="sourcePoint" />
            <mxPoint x="637.5" y="430" as="targetPoint" />
            <Array as="points">
              <mxPoint x="657.5" y="370" />
            </Array>
          </mxGeometry>
        </mxCell>
        <mxCell id="7OhkyX0RaIAwD1gFARNe-50" value="" style="curved=1;endArrow=classic;html=1;rounded=1;sketch=0;fontSize=14;fontColor=#5C5C5C;strokeColor=#006658;fillColor=#21C0A5;entryX=0;entryY=0.75;entryDx=0;entryDy=0;" edge="1" parent="1" target="7OhkyX0RaIAwD1gFARNe-8">
          <mxGeometry width="50" height="50" relative="1" as="geometry">
            <mxPoint x="260" y="430" as="sourcePoint" />
            <mxPoint x="310" y="380" as="targetPoint" />
            <Array as="points">
              <mxPoint x="260" y="380" />
            </Array>
          </mxGeometry>
        </mxCell>
        <mxCell id="7OhkyX0RaIAwD1gFARNe-51" value="" style="curved=1;endArrow=classic;html=1;rounded=1;sketch=0;fontSize=14;fontColor=#5C5C5C;strokeColor=#006658;fillColor=#21C0A5;entryX=0.362;entryY=0.01;entryDx=0;entryDy=0;entryPerimeter=0;" edge="1" parent="1" target="7OhkyX0RaIAwD1gFARNe-6">
          <mxGeometry width="50" height="50" relative="1" as="geometry">
            <mxPoint x="382.5" y="330" as="sourcePoint" />
            <mxPoint x="172.5" y="390" as="targetPoint" />
            <Array as="points">
              <mxPoint x="240" y="320" />
            </Array>
          </mxGeometry>
        </mxCell>
        <mxCell id="7OhkyX0RaIAwD1gFARNe-52" value="" style="curved=1;endArrow=classic;html=1;rounded=1;sketch=0;fontSize=14;fontColor=#5C5C5C;strokeColor=#006658;fillColor=#21C0A5;entryX=0.459;entryY=1.027;entryDx=0;entryDy=0;entryPerimeter=0;" edge="1" parent="1" target="ZkLpK5JwC7J6gqu-XZDJ-1">
          <mxGeometry width="50" height="50" relative="1" as="geometry">
            <mxPoint x="410" y="310" as="sourcePoint" />
            <mxPoint x="460" y="260" as="targetPoint" />
            <Array as="points">
              <mxPoint x="420" y="290" />
              <mxPoint x="410" y="260" />
            </Array>
          </mxGeometry>
        </mxCell>
        <mxCell id="7OhkyX0RaIAwD1gFARNe-53" value="" style="curved=1;endArrow=classic;html=1;rounded=1;sketch=0;fontSize=14;fontColor=#5C5C5C;strokeColor=#006658;fillColor=#21C0A5;exitX=0.517;exitY=1.013;exitDx=0;exitDy=0;exitPerimeter=0;entryX=0.75;entryY=0;entryDx=0;entryDy=0;" edge="1" parent="1" source="ZkLpK5JwC7J6gqu-XZDJ-1" target="7OhkyX0RaIAwD1gFARNe-8">
          <mxGeometry width="50" height="50" relative="1" as="geometry">
            <mxPoint x="497.5" y="300" as="sourcePoint" />
            <mxPoint x="547.5" y="250" as="targetPoint" />
            <Array as="points">
              <mxPoint x="487.5" y="270" />
            </Array>
          </mxGeometry>
        </mxCell>
      </root>
    </mxGraphModel>
  </diagram>
  <diagram id="8zW2wPIlCJueTper45Gf" name="支付系统架构">
    <mxGraphModel dx="1422" dy="706" grid="1" gridSize="10" guides="1" tooltips="1" connect="1" arrows="1" fold="1" page="1" pageScale="1" pageWidth="827" pageHeight="1169" math="0" shadow="0">
      <root>
        <mxCell id="0" />
        <mxCell id="1" parent="0" />
        <mxCell id="LhsuXjWjcs9kK3rj1LxB-1" value="" style="shape=image;verticalLabelPosition=bottom;labelBackgroundColor=default;verticalAlign=top;aspect=fixed;imageAspect=0;image=data:image/svg+xml,PHN2ZyB4bWxuczp4bGluaz0iaHR0cDovL3d3dy53My5vcmcvMTk5OS94bGluayIgeG1sbnM9Imh0dHA6Ly93d3cudzMub3JnLzIwMDAvc3ZnIiB2ZXJzaW9uPSIxLjEiIGhlaWdodD0iMzEyIiB3aWR0aD0iMTI4NS41IiBpZD0iU3ZnanNTdmcxMDA2IiB2aWV3Qm94PSIwIDAgMTI4NS41IDMxMiI+PGRlZnMgaWQ9IlN2Z2pzRGVmczEwMDciPjxtYXJrZXIgc3Ryb2tlLWRhc2hhcnJheT0iMCwwIiBtYXJrZXJVbml0cz0idXNlclNwYWNlT25Vc2UiIG9yaWVudD0iYXV0byIgdmlld0JveD0iMCAwIDE0IDEwIiByZWZZPSI1IiByZWZYPSIxMCIgbWFya2VySGVpZ2h0PSIxMCIgbWFya2VyV2lkdGg9IjE0IiBpZD0iU3ZnanNNYXJrZXIxMDI4Ij48cGF0aCBzdHJva2Utd2lkdGg9IjEiIHN0cm9rZT0iIzMyMzIzMiIgZmlsbD0iIzMyMzIzMiIgZD0iTTAsMCBMMTQsNSBMMCwxMCBMMCwwIiBpZD0iU3ZnanNQYXRoMTAyOSIvPjwvbWFya2VyPjxtYXJrZXIgc3Ryb2tlLWRhc2hhcnJheT0iMCwwIiBtYXJrZXJVbml0cz0idXNlclNwYWNlT25Vc2UiIG9yaWVudD0iYXV0byIgdmlld0JveD0iMCAwIDE0IDEwIiByZWZZPSI1IiByZWZYPSIxMCIgbWFya2VySGVpZ2h0PSIxMCIgbWFya2VyV2lkdGg9IjE0IiBpZD0iU3ZnanNNYXJrZXIxMDMyIj48cGF0aCBzdHJva2Utd2lkdGg9IjEiIHN0cm9rZT0iIzMyMzIzMiIgZmlsbD0iIzMyMzIzMiIgZD0iTTAsMCBMMTQsNSBMMCwxMCBMMCwwIiBpZD0iU3ZnanNQYXRoMTAzMyIvPjwvbWFya2VyPjxtYXJrZXIgc3Ryb2tlLWRhc2hhcnJheT0iMCwwIiBtYXJrZXJVbml0cz0idXNlclNwYWNlT25Vc2UiIG9yaWVudD0iYXV0byIgdmlld0JveD0iMCAwIDE0IDEwIiByZWZZPSI1IiByZWZYPSIxMCIgbWFya2VySGVpZ2h0PSIxMCIgbWFya2VyV2lkdGg9IjE0IiBpZD0iU3ZnanNNYXJrZXIxMDQyIj48cGF0aCBzdHJva2Utd2lkdGg9IjEiIHN0cm9rZT0iIzMyMzIzMiIgZmlsbD0iIzMyMzIzMiIgZD0iTTAsMCBMMTQsNSBMMCwxMCBMMCwwIiBpZD0iU3ZnanNQYXRoMTA0MyIvPjwvbWFya2VyPjxtYXJrZXIgc3Ryb2tlLWRhc2hhcnJheT0iMCwwIiBtYXJrZXJVbml0cz0idXNlclNwYWNlT25Vc2UiIG9yaWVudD0iYXV0byIgdmlld0JveD0iMCAwIDE0IDEwIiByZWZZPSI1IiByZWZYPSIxMCIgbWFya2VySGVpZ2h0PSIxMCIgbWFya2VyV2lkdGg9IjE0IiBpZD0iU3ZnanNNYXJrZXIxMDcyIj48cGF0aCBzdHJva2Utd2lkdGg9IjEiIHN0cm9rZT0iIzMyMzIzMiIgZmlsbD0iIzMyMzIzMiIgZD0iTTAsMCBMMTQsNSBMMCwxMCBMMCwwIiBpZD0iU3ZnanNQYXRoMTA3MyIvPjwvbWFya2VyPjxtYXJrZXIgc3Ryb2tlLWRhc2hhcnJheT0iMCwwIiBtYXJrZXJVbml0cz0idXNlclNwYWNlT25Vc2UiIG9yaWVudD0iYXV0byIgdmlld0JveD0iMCAwIDE0IDEwIiByZWZZPSI1IiByZWZYPSIxMCIgbWFya2VySGVpZ2h0PSIxMCIgbWFya2VyV2lkdGg9IjE0IiBpZD0iU3ZnanNNYXJrZXIxMDc2Ij48cGF0aCBzdHJva2Utd2lkdGg9IjEiIHN0cm9rZT0iIzMyMzIzMiIgZmlsbD0iIzMyMzIzMiIgZD0iTTAsMCBMMTQsNSBMMCwxMCBMMCwwIiBpZD0iU3ZnanNQYXRoMTA3NyIvPjwvbWFya2VyPjxtYXJrZXIgc3Ryb2tlLWRhc2hhcnJheT0iMCwwIiBtYXJrZXJVbml0cz0idXNlclNwYWNlT25Vc2UiIG9yaWVudD0iYXV0byIgdmlld0JveD0iMCAwIDE0IDEwIiByZWZZPSI1IiByZWZYPSIxMCIgbWFya2VySGVpZ2h0PSIxMCIgbWFya2VyV2lkdGg9IjE0IiBpZD0iU3ZnanNNYXJrZXIxMDgwIj48cGF0aCBzdHJva2Utd2lkdGg9IjEiIHN0cm9rZT0iIzMyMzIzMiIgZmlsbD0iIzMyMzIzMiIgZD0iTTAsMCBMMTQsNSBMMCwxMCBMMCwwIiBpZD0iU3ZnanNQYXRoMTA4MSIvPjwvbWFya2VyPjxtYXJrZXIgc3Ryb2tlLWRhc2hhcnJheT0iMCwwIiBtYXJrZXJVbml0cz0idXNlclNwYWNlT25Vc2UiIG9yaWVudD0iYXV0byIgdmlld0JveD0iMCAwIDE0IDEwIiByZWZZPSI1IiByZWZYPSIxMCIgbWFya2VySGVpZ2h0PSIxMCIgbWFya2VyV2lkdGg9IjE0IiBpZD0iU3ZnanNNYXJrZXIxMDg0Ij48cGF0aCBzdHJva2Utd2lkdGg9IjEiIHN0cm9rZT0iIzMyMzIzMiIgZmlsbD0iIzMyMzIzMiIgZD0iTTAsMCBMMTQsNSBMMCwxMCBMMCwwIiBpZD0iU3ZnanNQYXRoMTA4NSIvPjwvbWFya2VyPjxtYXJrZXIgc3Ryb2tlLWRhc2hhcnJheT0iMCwwIiBtYXJrZXJVbml0cz0idXNlclNwYWNlT25Vc2UiIG9yaWVudD0iYXV0byIgdmlld0JveD0iMCAwIDE0IDEwIiByZWZZPSI1IiByZWZYPSIxMCIgbWFya2VySGVpZ2h0PSIxMCIgbWFya2VyV2lkdGg9IjE0IiBpZD0iU3ZnanNNYXJrZXIxMTAyIj48cGF0aCBzdHJva2Utd2lkdGg9IjEiIHN0cm9rZT0iIzMyMzIzMiIgZmlsbD0iIzMyMzIzMiIgZD0iTTAsMCBMMTQsNSBMMCwxMCBMMCwwIiBpZD0iU3ZnanNQYXRoMTEwMyIvPjwvbWFya2VyPjxtYXJrZXIgc3Ryb2tlLWRhc2hhcnJheT0iMCwwIiBtYXJrZXJVbml0cz0idXNlclNwYWNlT25Vc2UiIG9yaWVudD0iYXV0byIgdmlld0JveD0iMCAwIDE0IDEwIiByZWZZPSI1IiByZWZYPSIxMCIgbWFya2VySGVpZ2h0PSIxMCIgbWFya2VyV2lkdGg9IjE0IiBpZD0iU3ZnanNNYXJrZXIxMTEwIj48cGF0aCBzdHJva2Utd2lkdGg9IjEiIHN0cm9rZT0iIzMyMzIzMiIgZmlsbD0iIzMyMzIzMiIgZD0iTTAsMCBMMTQsNSBMMCwxMCBMMCwwIiBpZD0iU3ZnanNQYXRoMTExMSIvPjwvbWFya2VyPjwvZGVmcz48ZyB0cmFuc2Zvcm09InRyYW5zbGF0ZSgyNSwxMjguNSkiIGlkPSJTdmdqc0cxMDA4Ij48cGF0aCBmaWxsPSIjY2ZjZmNmIiBmaWxsLW9wYWNpdHk9IjEiIHN0cm9rZS13aWR0aD0iMiIgc3Ryb2tlPSJyZ2JhKDUwLDUwLDUwLDEpIiBkPSJNIDE4LjMzMzMzMzMzMzMzMzMzMiAwTCA5NS42NjY2NjY2NjY2NjY2NyAwQyAxMjAuMTExMTExMTExMTExMTEgMCAxMjAuMTExMTExMTExMTExMTEgNTUgOTUuNjY2NjY2NjY2NjY2NjcgNTVMIDE4LjMzMzMzMzMzMzMzMzMzMiA1NUMgLTYuMTExMTExMTExMTExMTExIDU1IC02LjExMTExMTExMTExMTExMSAwIDE4LjMzMzMzMzMzMzMzMzMzMiAwWiIgaWQ9IlN2Z2pzUGF0aDEwMDkiLz48ZyBpZD0iU3ZnanNHMTAxMCI+PHRleHQgdHJhbnNmb3JtPSJyb3RhdGUoMCkiIHk9IjE2Ljg3NSIgb3BhY2l0eT0iMSIgZm9udC1zdHlsZT0iIiBzaXplPSIxM3B4IiBhbGlnbj0ibWlkZGxlIiBmb250LXdlaWdodD0iNDAwIiBmaWxsPSIjMzIzMjMyIiB3aWR0aD0iOTRweCIgZm9udC1zaXplPSIxM3B4IiB0ZXh0LWFuY2hvcj0ibWlkZGxlIiBmb250LWZhbWlseT0iQXJpYWwiIGlkPSJTdmdqc1RleHQxMDExIj48dHNwYW4geD0iNTciIGR5PSIxNiIgaWQ9IlN2Z2pzVHNwYW4xMDEyIj48dHNwYW4gc3R5bGU9InRleHQtZGVjb3JhdGlvbjo7IiBpZD0iU3ZnanNUc3BhbjEwMTMiPuWPkei1t+aUr+S7mDwvdHNwYW4+PC90c3Bhbj48L3RleHQ+PC9nPjwvZz48ZyB0cmFuc2Zvcm09InRyYW5zbGF0ZSgxOTIsMTI2KSIgaWQ9IlN2Z2pzRzEwMTQiPjxwYXRoIGZpbGw9IiNjOGU2YzkiIGZpbGwtb3BhY2l0eT0iMSIgc3Ryb2tlLXdpZHRoPSIyIiBzdHJva2U9InJnYmEoNTAsNTAsNTAsMSkiIGQ9Ik0gMCAwTCAxMDcgMEwgMTA3IDYwTCAwIDYwWiIgaWQ9IlN2Z2pzUGF0aDEwMTUiLz48ZyBpZD0iU3ZnanNHMTAxNiI+PHRleHQgdHJhbnNmb3JtPSJyb3RhdGUoMCkiIHk9IjE5LjM3NSIgb3BhY2l0eT0iMSIgZm9udC1zdHlsZT0iIiBzaXplPSIxM3B4IiBhbGlnbj0ibWlkZGxlIiBmb250LXdlaWdodD0iNDAwIiBmaWxsPSIjMzIzMjMyIiB3aWR0aD0iODdweCIgZm9udC1zaXplPSIxM3B4IiB0ZXh0LWFuY2hvcj0ibWlkZGxlIiBmb250LWZhbWlseT0iQXJpYWwiIGlkPSJTdmdqc1RleHQxMDE3Ij48dHNwYW4geD0iNTMuNSIgZHk9IjE2IiBpZD0iU3ZnanNUc3BhbjEwMTgiPjx0c3BhbiBzdHlsZT0idGV4dC1kZWNvcmF0aW9uOjsiIGlkPSJTdmdqc1RzcGFuMTAxOSI+5Y+C5pWw5qCh6aqMPC90c3Bhbj48L3RzcGFuPjwvdGV4dD48L2c+PC9nPjxnIHRyYW5zZm9ybT0idHJhbnNsYXRlKDExNjAuNSwxMjYpIiBpZD0iU3ZnanNHMTAyMCI+PHBhdGggZmlsbD0iI2NmY2ZjZiIgZmlsbC1vcGFjaXR5PSIxIiBzdHJva2Utd2lkdGg9IjIiIHN0cm9rZT0icmdiYSg1MCw1MCw1MCwxKSIgZD0iTSAxOCAwTCA4MS41IDBDIDEwNS41IDAgMTA1LjUgNTQgODEuNSA1NEwgMTggNTRDIC02IDU0IC02IDAgMTggMFoiIGlkPSJTdmdqc1BhdGgxMDIxIi8+PGcgaWQ9IlN2Z2pzRzEwMjIiPjx0ZXh0IHRyYW5zZm9ybT0icm90YXRlKDApIiB5PSIxNi4zNzUiIG9wYWNpdHk9IjEiIGZvbnQtc3R5bGU9IiIgc2l6ZT0iMTNweCIgYWxpZ249Im1pZGRsZSIgZm9udC13ZWlnaHQ9IjQwMCIgZmlsbD0iIzMyMzIzMiIgd2lkdGg9IjgwcHgiIGZvbnQtc2l6ZT0iMTNweCIgdGV4dC1hbmNob3I9Im1pZGRsZSIgZm9udC1mYW1pbHk9IkFyaWFsIiBpZD0iU3ZnanNUZXh0MTAyMyI+PHRzcGFuIHg9IjUwIiBkeT0iMTYiIGlkPSJTdmdqc1RzcGFuMTAyNCI+PHRzcGFuIHN0eWxlPSJ0ZXh0LWRlY29yYXRpb246OyIgaWQ9IlN2Z2pzVHNwYW4xMDI1Ij7mlK/ku5jnu5PmnZ88L3RzcGFuPjwvdHNwYW4+PC90ZXh0PjwvZz48L2c+PGcgaWQ9IlN2Z2pzRzEwMjYiPjxwYXRoIG1hcmtlci1lbmQ9InVybCgjU3ZnanNNYXJrZXIxMDI4KSIgZmlsbD0ibm9uZSIgc3Ryb2tlLXdpZHRoPSIyIiBzdHJva2U9IiMzMjMyMzIiIGQ9Ik0xNDAgMTU2TDE2NS41IDE1NkwxNjUuNSAxNTZMMTg4LjM5OTk5OTk5OTk5OTk4IDE1NiIgaWQ9IlN2Z2pzUGF0aDEwMjciLz48L2c+PGcgaWQ9IlN2Z2pzRzEwMzAiPjxwYXRoIG1hcmtlci1lbmQ9InVybCgjU3ZnanNNYXJrZXIxMDMyKSIgZmlsbD0ibm9uZSIgc3Ryb2tlLXdpZHRoPSIyIiBzdHJva2U9IiMzMjMyMzIiIGQ9Ik0zMDAgMTU2TDMyNS41IDE1NkwzMjUuNSAxNTZMMzQ4LjQgMTU2IiBpZD0iU3ZnanNQYXRoMTAzMSIvPjwvZz48ZyB0cmFuc2Zvcm09InRyYW5zbGF0ZSgzNTIsMTI2KSIgaWQ9IlN2Z2pzRzEwMzQiPjxwYXRoIGZpbGw9IiNjOGU2YzkiIGZpbGwtb3BhY2l0eT0iMSIgc3Ryb2tlLXdpZHRoPSIyIiBzdHJva2U9InJnYmEoNTAsNTAsNTAsMSkiIGQ9Ik0gMCAwTCAxMDcgMEwgMTA3IDYwTCAwIDYwWiIgaWQ9IlN2Z2pzUGF0aDEwMzUiLz48ZyBpZD0iU3ZnanNHMTAzNiI+PHRleHQgdHJhbnNmb3JtPSJyb3RhdGUoMCkiIHk9IjE5LjM3NSIgb3BhY2l0eT0iMSIgZm9udC1zdHlsZT0iIiBzaXplPSIxM3B4IiBhbGlnbj0ibWlkZGxlIiBmb250LXdlaWdodD0iNDAwIiBmaWxsPSIjMzIzMjMyIiB3aWR0aD0iODdweCIgZm9udC1zaXplPSIxM3B4IiB0ZXh0LWFuY2hvcj0ibWlkZGxlIiBmb250LWZhbWlseT0iQXJpYWwiIGlkPSJTdmdqc1RleHQxMDM3Ij48dHNwYW4geD0iNTMuNSIgZHk9IjE2IiBpZD0iU3ZnanNUc3BhbjEwMzgiPjx0c3BhbiBzdHlsZT0idGV4dC1kZWNvcmF0aW9uOjsiIGlkPSJTdmdqc1RzcGFuMTAzOSI+5pSv5LuY6Lev55SxPC90c3Bhbj48L3RzcGFuPjwvdGV4dD48L2c+PC9nPjxnIGlkPSJTdmdqc0cxMDQwIj48cGF0aCBtYXJrZXItZW5kPSJ1cmwoI1N2Z2pzTWFya2VyMTA0MikiIGZpbGw9Im5vbmUiIHN0cm9rZS13aWR0aD0iMiIgc3Ryb2tlPSIjMzIzMjMyIiBkPSJNNDYwIDE1Nkw0ODUuNSAxNTZMNDg1LjUgMTU2TDUwOC40IDE1NiIgaWQ9IlN2Z2pzUGF0aDEwNDEiLz48L2c+PGcgdHJhbnNmb3JtPSJ0cmFuc2xhdGUoOTkyLDEyNikiIGlkPSJTdmdqc0cxMDQ0Ij48cGF0aCBmaWxsPSIjYzhlNmM5IiBmaWxsLW9wYWNpdHk9IjEiIHN0cm9rZS13aWR0aD0iMiIgc3Ryb2tlPSJyZ2JhKDUwLDUwLDUwLDEpIiBkPSJNIDAgMEwgMTA3IDBMIDEwNyA2MEwgMCA2MFoiIGlkPSJTdmdqc1BhdGgxMDQ1Ii8+PGcgaWQ9IlN2Z2pzRzEwNDYiPjx0ZXh0IHRyYW5zZm9ybT0icm90YXRlKDApIiB5PSIxOS4zNzUiIG9wYWNpdHk9IjEiIGZvbnQtc3R5bGU9IiIgc2l6ZT0iMTNweCIgYWxpZ249Im1pZGRsZSIgZm9udC13ZWlnaHQ9IjQwMCIgZmlsbD0iIzMyMzIzMiIgd2lkdGg9Ijg3cHgiIGZvbnQtc2l6ZT0iMTNweCIgdGV4dC1hbmNob3I9Im1pZGRsZSIgZm9udC1mYW1pbHk9IkFyaWFsIiBpZD0iU3ZnanNUZXh0MTA0NyI+PHRzcGFuIHg9IjUzLjUiIGR5PSIxNiIgaWQ9IlN2Z2pzVHNwYW4xMDQ4Ij48dHNwYW4gc3R5bGU9InRleHQtZGVjb3JhdGlvbjo7IiBpZD0iU3ZnanNUc3BhbjEwNDkiPuWPkemAgea2iOaBrzwvdHNwYW4+PC90c3Bhbj48L3RleHQ+PC9nPjwvZz48ZyB0cmFuc2Zvcm09InRyYW5zbGF0ZSg4MzIsMTI2KSIgaWQ9IlN2Z2pzRzEwNTAiPjxwYXRoIGZpbGw9IiNjOGU2YzkiIGZpbGwtb3BhY2l0eT0iMSIgc3Ryb2tlLXdpZHRoPSIyIiBzdHJva2U9InJnYmEoNTAsNTAsNTAsMSkiIGQ9Ik0gMCAwTCAxMDcgMEwgMTA3IDYwTCAwIDYwWiIgaWQ9IlN2Z2pzUGF0aDEwNTEiLz48ZyBpZD0iU3ZnanNHMTA1MiI+PHRleHQgdHJhbnNmb3JtPSJyb3RhdGUoMCkiIHk9IjE5LjM3NSIgb3BhY2l0eT0iMSIgZm9udC1zdHlsZT0iIiBzaXplPSIxM3B4IiBhbGlnbj0ibWlkZGxlIiBmb250LXdlaWdodD0iNDAwIiBmaWxsPSIjMzIzMjMyIiB3aWR0aD0iODdweCIgZm9udC1zaXplPSIxM3B4IiB0ZXh0LWFuY2hvcj0ibWlkZGxlIiBmb250LWZhbWlseT0iQXJpYWwiIGlkPSJTdmdqc1RleHQxMDUzIj48dHNwYW4geD0iNTMuNSIgZHk9IjE2IiBpZD0iU3ZnanNUc3BhbjEwNTQiPjx0c3BhbiBzdHlsZT0idGV4dC1kZWNvcmF0aW9uOjsiIGlkPSJTdmdqc1RzcGFuMTA1NSI+5pu05paw6K6i5Y2VPC90c3Bhbj48L3RzcGFuPjwvdGV4dD48L2c+PC9nPjxnIHRyYW5zZm9ybT0idHJhbnNsYXRlKDY3MiwxMjYpIiBpZD0iU3ZnanNHMTA1NiI+PHBhdGggZmlsbD0iI2M4ZTZjOSIgZmlsbC1vcGFjaXR5PSIxIiBzdHJva2Utd2lkdGg9IjIiIHN0cm9rZT0icmdiYSg1MCw1MCw1MCwxKSIgZD0iTSAwIDBMIDEwNyAwTCAxMDcgNjBMIDAgNjBaIiBpZD0iU3ZnanNQYXRoMTA1NyIvPjxnIGlkPSJTdmdqc0cxMDU4Ij48dGV4dCB0cmFuc2Zvcm09InJvdGF0ZSgwKSIgeT0iMTAuODc1IiBvcGFjaXR5PSIxIiBmb250LXN0eWxlPSIiIHNpemU9IjEzcHgiIGFsaWduPSJtaWRkbGUiIGZvbnQtd2VpZ2h0PSI0MDAiIGZpbGw9IiMzMjMyMzIiIHdpZHRoPSI4N3B4IiBmb250LXNpemU9IjEzcHgiIHRleHQtYW5jaG9yPSJtaWRkbGUiIGZvbnQtZmFtaWx5PSJBcmlhbCIgaWQ9IlN2Z2pzVGV4dDEwNTkiPjx0c3BhbiB4PSI1My41IiBkeT0iMTYiIGlkPSJTdmdqc1RzcGFuMTA2MCI+PHRzcGFuIHN0eWxlPSJ0ZXh0LWRlY29yYXRpb246OyIgaWQ9IlN2Z2pzVHNwYW4xMDYxIj7osIPnlKjmuKDpgZPmlK/ku5g8L3RzcGFuPjwvdHNwYW4+PHRzcGFuIHg9IjUzLjUiIGR5PSIxNiIgaWQ9IlN2Z2pzVHNwYW4xMDYyIj48dHNwYW4gc3R5bGU9InRleHQtZGVjb3JhdGlvbjo7IiBpZD0iU3ZnanNUc3BhbjEwNjMiPuiQveWcsDwvdHNwYW4+PC90c3Bhbj48L3RleHQ+PC9nPjwvZz48ZyB0cmFuc2Zvcm09InRyYW5zbGF0ZSg1MTIsMTI2KSIgaWQ9IlN2Z2pzRzEwNjQiPjxwYXRoIGZpbGw9IiNjOGU2YzkiIGZpbGwtb3BhY2l0eT0iMSIgc3Ryb2tlLXdpZHRoPSIyIiBzdHJva2U9InJnYmEoNTAsNTAsNTAsMSkiIGQ9Ik0gMCAwTCAxMDcgMEwgMTA3IDYwTCAwIDYwWiIgaWQ9IlN2Z2pzUGF0aDEwNjUiLz48ZyBpZD0iU3ZnanNHMTA2NiI+PHRleHQgdHJhbnNmb3JtPSJyb3RhdGUoMCkiIHk9IjE5LjM3NSIgb3BhY2l0eT0iMSIgZm9udC1zdHlsZT0iIiBzaXplPSIxM3B4IiBhbGlnbj0ibWlkZGxlIiBmb250LXdlaWdodD0iNDAwIiBmaWxsPSIjMzIzMjMyIiB3aWR0aD0iODdweCIgZm9udC1zaXplPSIxM3B4IiB0ZXh0LWFuY2hvcj0ibWlkZGxlIiBmb250LWZhbWlseT0iQXJpYWwiIGlkPSJTdmdqc1RleHQxMDY3Ij48dHNwYW4geD0iNTMuNSIgZHk9IjE2IiBpZD0iU3ZnanNUc3BhbjEwNjgiPjx0c3BhbiBzdHlsZT0idGV4dC1kZWNvcmF0aW9uOjsiIGlkPSJTdmdqc1RzcGFuMTA2OSI+6aOO6Zmp6K+E5LywPC90c3Bhbj48L3RzcGFuPjwvdGV4dD48L2c+PC9nPjxnIGlkPSJTdmdqc0cxMDcwIj48cGF0aCBtYXJrZXItZW5kPSJ1cmwoI1N2Z2pzTWFya2VyMTA3MikiIGZpbGw9Im5vbmUiIHN0cm9rZS13aWR0aD0iMiIgc3Ryb2tlPSIjMzIzMjMyIiBkPSJNNjIwIDE1Nkw2NDUuNSAxNTZMNjQ1LjUgMTU2TDY2OC40IDE1NiIgaWQ9IlN2Z2pzUGF0aDEwNzEiLz48L2c+PGcgaWQ9IlN2Z2pzRzEwNzQiPjxwYXRoIG1hcmtlci1lbmQ9InVybCgjU3ZnanNNYXJrZXIxMDc2KSIgZmlsbD0ibm9uZSIgc3Ryb2tlLXdpZHRoPSIyIiBzdHJva2U9IiMzMjMyMzIiIGQ9Ik05NDAgMTU2TDk2NS41IDE1Nkw5NjUuNSAxNTZMOTg4LjQwMDAwMDAwMDAwMDEgMTU2IiBpZD0iU3ZnanNQYXRoMTA3NSIvPjwvZz48ZyBpZD0iU3ZnanNHMTA3OCI+PHBhdGggbWFya2VyLWVuZD0idXJsKCNTdmdqc01hcmtlcjEwODApIiBmaWxsPSJub25lIiBzdHJva2Utd2lkdGg9IjIiIHN0cm9rZT0iIzMyMzIzMiIgZD0iTTc4MCAxNTZMODA1LjUgMTU2TDgwNS41IDE1Nkw4MjguNCAxNTYiIGlkPSJTdmdqc1BhdGgxMDc5Ii8+PC9nPjxnIGlkPSJTdmdqc0cxMDgyIj48cGF0aCBtYXJrZXItZW5kPSJ1cmwoI1N2Z2pzTWFya2VyMTA4NCkiIGZpbGw9Im5vbmUiIHN0cm9rZS13aWR0aD0iMiIgc3Ryb2tlPSIjMzIzMjMyIiBkPSJNMTEwMCAxNTZMMTEyOC41IDE1NkwxMTI4LjUgMTU2TDExNTggMTU2IiBpZD0iU3ZnanNQYXRoMTA4MyIvPjwvZz48ZyB0cmFuc2Zvcm09InRyYW5zbGF0ZSg2NzIsMjI3KSIgaWQ9IlN2Z2pzRzEwODYiPjxwYXRoIGZpbGw9IiNjOGU2YzkiIGZpbGwtb3BhY2l0eT0iMSIgc3Ryb2tlLXdpZHRoPSIyIiBzdHJva2U9InJnYmEoNTAsNTAsNTAsMSkiIGQ9Ik0gMCAwTCAxMDcgMEwgMTA3IDYwTCAwIDYwWiIgaWQ9IlN2Z2pzUGF0aDEwODciLz48ZyBpZD0iU3ZnanNHMTA4OCI+PHRleHQgdHJhbnNmb3JtPSJyb3RhdGUoMCkiIHk9IjE5LjM3NSIgb3BhY2l0eT0iMSIgZm9udC1zdHlsZT0iIiBzaXplPSIxM3B4IiBhbGlnbj0ibWlkZGxlIiBmb250LXdlaWdodD0iNDAwIiBmaWxsPSIjMzIzMjMyIiB3aWR0aD0iODdweCIgZm9udC1zaXplPSIxM3B4IiB0ZXh0LWFuY2hvcj0ibWlkZGxlIiBmb250LWZhbWlseT0iQXJpYWwiIGlkPSJTdmdqc1RleHQxMDg5Ij48dHNwYW4geD0iNTMuNSIgZHk9IjE2IiBpZD0iU3ZnanNUc3BhbjEwOTAiPjx0c3BhbiBzdHlsZT0idGV4dC1kZWNvcmF0aW9uOjsiIGlkPSJTdmdqc1RzcGFuMTA5MSI+5ouS57ud5Lqk5piTPC90c3Bhbj48L3RzcGFuPjwvdGV4dD48L2c+PC9nPjxnIHRyYW5zZm9ybT0idHJhbnNsYXRlKDY2OCwyNSkiIGlkPSJTdmdqc0cxMDkyIj48cGF0aCBmaWxsPSIjYzhlNmM5IiBmaWxsLW9wYWNpdHk9IjEiIHN0cm9rZS13aWR0aD0iMiIgc3Ryb2tlPSJyZ2JhKDUwLDUwLDUwLDEpIiBkPSJNIDAgMEwgMTA3IDBMIDEwNyA2MEwgMCA2MFoiIGlkPSJTdmdqc1BhdGgxMDkzIi8+PGcgaWQ9IlN2Z2pzRzEwOTQiPjx0ZXh0IHRyYW5zZm9ybT0icm90YXRlKDApIiB5PSIxMC44NzUiIG9wYWNpdHk9IjEiIGZvbnQtc3R5bGU9IiIgc2l6ZT0iMTNweCIgYWxpZ249Im1pZGRsZSIgZm9udC13ZWlnaHQ9IjQwMCIgZmlsbD0iIzMyMzIzMiIgd2lkdGg9Ijg3cHgiIGZvbnQtc2l6ZT0iMTNweCIgdGV4dC1hbmNob3I9Im1pZGRsZSIgZm9udC1mYW1pbHk9IkFyaWFsIiBpZD0iU3ZnanNUZXh0MTA5NSI+PHRzcGFuIHg9IjUzLjUiIGR5PSIxNiIgaWQ9IlN2Z2pzVHNwYW4xMDk2Ij48dHNwYW4gc3R5bGU9InRleHQtZGVjb3JhdGlvbjo7IiBpZD0iU3ZnanNUc3BhbjEwOTciPuefreS/oeaIluiAhei6q+S7vTwvdHNwYW4+PC90c3Bhbj48dHNwYW4geD0iNTMuNSIgZHk9IjE2IiBpZD0iU3ZnanNUc3BhbjEwOTgiPjx0c3BhbiBzdHlsZT0idGV4dC1kZWNvcmF0aW9uOjsiIGlkPSJTdmdqc1RzcGFuMTA5OSI+6aqM6K+BPC90c3Bhbj48L3RzcGFuPjwvdGV4dD48L2c+PC9nPjxnIGlkPSJTdmdqc0cxMTAwIj48cGF0aCBtYXJrZXItZW5kPSJ1cmwoI1N2Z2pzTWFya2VyMTEwMikiIGZpbGw9Im5vbmUiIHN0cm9rZS13aWR0aD0iMiIgc3Ryb2tlPSIjMzIzMjMyIiBkPSJNNTY1LjUgMTI1TDU2NS41IDU1TDY2NC40IDU1IiBpZD0iU3ZnanNQYXRoMTEwMSIvPjxyZWN0IGZpbGw9IiNmZmZmZmYiIHk9IjQ3IiB4PSI1OTAuNSIgaGVpZ2h0PSIxNiIgd2lkdGg9IjUyIiBpZD0iU3ZnanNSZWN0MTEwNCIvPjx0ZXh0IHRyYW5zZm9ybT0icm90YXRlKDApIiB5PSI0NC4zNzUiIG9wYWNpdHk9IjEiIGZvbnQtc3R5bGU9IiIgc2l6ZT0iMTNweCIgYWxpZ249InRvcCIgZm9udC13ZWlnaHQ9IjQwMCIgZmlsbD0iIzMyMzIzMiIgd2lkdGg9IjUycHgiIGZvbnQtc2l6ZT0iMTNweCIgdGV4dC1hbmNob3I9Im1pZGRsZSIgZm9udC1mYW1pbHk9IuW+rui9r+mbhem7kSIgaWQ9IlN2Z2pzVGV4dDExMDUiPjx0c3BhbiB4PSI2MTYuNSIgZHk9IjE2IiBpZD0iU3ZnanNUc3BhbjExMDYiPjx0c3BhbiBzdHlsZT0idGV4dC1kZWNvcmF0aW9uOjsiIGlkPSJTdmdqc1RzcGFuMTEwNyI+5aKe5by66aqM6K+BPC90c3Bhbj48L3RzcGFuPjwvdGV4dD48L2c+PGcgaWQ9IlN2Z2pzRzExMDgiPjxwYXRoIG1hcmtlci1lbmQ9InVybCgjU3ZnanNNYXJrZXIxMTEwKSIgZmlsbD0ibm9uZSIgc3Ryb2tlLXdpZHRoPSIyIiBzdHJva2U9IiMzMjMyMzIiIGQ9Ik01NjUuNSAxODdMNTY1LjUgMjU3TDY2OC40IDI1NyIgaWQ9IlN2Z2pzUGF0aDExMDkiLz48cmVjdCBmaWxsPSIjZmZmZmZmIiB5PSIyNDkiIHg9IjU5OS41IiBoZWlnaHQ9IjE2IiB3aWR0aD0iMjYiIGlkPSJTdmdqc1JlY3QxMTEyIi8+PHRleHQgdHJhbnNmb3JtPSJyb3RhdGUoMCkiIHk9IjI0Ni4zNzUiIG9wYWNpdHk9IjEiIGZvbnQtc3R5bGU9IiIgc2l6ZT0iMTNweCIgYWxpZ249InRvcCIgZm9udC13ZWlnaHQ9IjQwMCIgZmlsbD0iIzMyMzIzMiIgd2lkdGg9IjI2cHgiIGZvbnQtc2l6ZT0iMTNweCIgdGV4dC1hbmNob3I9Im1pZGRsZSIgZm9udC1mYW1pbHk9IuW+rui9r+mbhem7kSIgaWQ9IlN2Z2pzVGV4dDExMTMiPjx0c3BhbiB4PSI2MTIuNSIgZHk9IjE2IiBpZD0iU3ZnanNUc3BhbjExMTQiPjx0c3BhbiBzdHlsZT0idGV4dC1kZWNvcmF0aW9uOjsiIGlkPSJTdmdqc1RzcGFuMTExNSI+5ouS57udPC90c3Bhbj48L3RzcGFuPjwvdGV4dD48L2c+PC9zdmc+;" vertex="1" parent="1">
          <mxGeometry width="1403.17" height="340" as="geometry" />
        </mxCell>
      </root>
    </mxGraphModel>
  </diagram>
</mxfile>
